# xmcd
#
# Track frame offsets:
#	150
#	11855
#	22994
#	36833
#	50369
#	63857
#	73212
#	83368
#	96425
#	108735
#	118250
#	131662
#	154061
#	167485
#	185330
#	201573
#	217419
#	229981
#	239967
#	252491
#
# Disc length: 3589 seconds
#
# Revision: 2
# Processed by: cddbd v1.5.2PL0 Copyright (c) Steve Scherf et al.
# Submitted via: audiograbber 1.83.01
#
DISCID=310e0314
DTITLE=Various Artist - 100 Essential 1960's [Disc 2]
DYEAR=2008
DGENRE=Pop
TTITLE0=The Troggs - Wild Thing
TTITLE1=Anthony Newley - Why
TTITLE2=Small Faces - All Or Nothing
TTITLE3=The Mamas And The Papas - Dedicated To The One I Love
TTITLE4=Engelbert Humperdinck - The Last Waltz
TTITLE5=Buddy Holly - Brown Eyed Handsome Man
TTITLE6=Marvin Gaye and Tammi Terrell - Ain't Nothing Like The Real Thing
TTITLE7=The Supremes - Stop! In The Name Of Love
TTITLE8=Chuck Berry - No Particular Place To Go
TTITLE9=The Allisons - Are You Sure?
TTITLE10=Lou Christie - Lightnin' Strikes
TTITLE11=Ella Fitzgerald - Mack The Knife (Live 1966)
TTITLE12=Marvin Gaye and Kim Weston - It Takes Two
TTITLE13=Connie Francis - Mama
TTITLE14=Dave Dee, Dozy, Beaky, Mick and Tich - The Legend Of Xanadu
TTITLE15=The Temptations - Cloud Nine
TTITLE16=Georgie Fame - Yeh Yeh
TTITLE17=Billy Fury - Like I've Never Been Gone
TTITLE18=The Isley Brothers - This Old Heart Of Mine (Is Weak For You)
TTITLE19=The Righteous Brothers - You've Lost That Lovin' Feelin'
EXTD=
EXTT0=
EXTT1=
EXTT2=
EXTT3=
EXTT4=
EXTT5=
EXTT6=
EXTT7=
EXTT8=
EXTT9=
EXTT10=
EXTT11=
EXTT12=
EXTT13=
EXTT14=
EXTT15=
EXTT16=
EXTT17=
EXTT18=
EXTT19=
PLAYORDER=
